<svg xmlns="http://www.w3.org/2000/svg" xmlns:xlink="http://www.w3.org/1999/xlink" version="1.1" id="Layer_1" x="0px" y="0px" viewBox="5.0 -10.0 100.0 135.0" enable-background="new 0 0 100 100" xml:space="preserve" height="100px" width="100px">
<g>
	<g>
		<path d="M50.125,95.5h-0.25c-0.057,0-0.112-0.01-0.166-0.028C24.746,86.704,13.945,66.69,9.28,51.444    C4.235,34.958,5.091,20.339,5.1,20.193c0.017-0.263,0.235-0.468,0.499-0.468c22.552,0,34.586-7.805,44.097-15.121    c0.18-0.138,0.43-0.138,0.609,0c9.511,7.316,21.545,15.121,44.097,15.121c0.264,0,0.482,0.205,0.499,0.468    c0.009,0.146,0.864,14.766-4.181,31.251c-4.665,15.246-15.466,35.26-40.429,44.028C50.237,95.49,50.182,95.5,50.125,95.5z     M49.96,94.5h0.08c44.695-15.759,44.077-68.252,43.883-73.776C71.604,20.615,59.525,12.926,50,5.63    c-9.525,7.295-21.604,14.984-43.923,15.093C5.884,26.249,5.278,78.746,49.96,94.5z"/>
	</g>
	<g>
		<path fill="none" stroke="#000000" stroke-linecap="round" stroke-linejoin="round" stroke-miterlimit="10" d="M50,5"/>
	</g>
	<g>
		<path d="M50.112,90.912h-0.225c-0.057,0-0.112-0.01-0.166-0.028C6.806,75.81,9.594,23.753,9.627,23.229    c0.017-0.263,0.235-0.468,0.499-0.468c20.235,0,31.035-7.004,39.569-13.569c0.18-0.138,0.43-0.138,0.609,0    c8.534,6.565,19.334,13.569,39.569,13.569c0.264,0,0.482,0.205,0.499,0.468c0.033,0.524,2.821,52.581-40.095,67.655    C50.225,90.902,50.169,90.912,50.112,90.912z M49.974,89.912h0.053c39.972-14.1,39.545-60.948,39.368-66.153    C69.394,23.651,58.549,16.763,50,10.219c-8.549,6.544-19.394,13.432-39.395,13.541C10.431,28.965,10.016,75.817,49.974,89.912z"/>
	</g>
	<g>
		<path d="M50,90.724c-0.276,0-0.5-0.224-0.5-0.5V9.776c0-0.276,0.224-0.5,0.5-0.5s0.5,0.224,0.5,0.5v80.447    C50.5,90.5,50.276,90.724,50,90.724z"/>
	</g>
	<g>
		<path d="M86.035,51.445h-72.07c-0.276,0-0.5-0.224-0.5-0.5s0.224-0.5,0.5-0.5h72.07c0.276,0,0.5,0.224,0.5,0.5    S86.312,51.445,86.035,51.445z"/>
	</g>
	<g>
		<path d="M10.157,27.281c-0.128,0-0.256-0.049-0.354-0.146c-0.195-0.195-0.195-0.512,0-0.707l3.46-3.459    c0.195-0.195,0.512-0.195,0.707,0s0.195,0.512,0,0.707l-3.46,3.459C10.413,27.232,10.285,27.281,10.157,27.281z"/>
	</g>
	<g>
		<path d="M10.791,35.752c-0.128,0-0.256-0.049-0.354-0.146c-0.195-0.195-0.195-0.512,0-0.707l13.25-13.25    c0.195-0.195,0.512-0.195,0.707,0s0.195,0.512,0,0.707l-13.25,13.25C11.047,35.703,10.919,35.752,10.791,35.752z"/>
	</g>
	<g>
		<path d="M11.887,43.761c-0.128,0-0.256-0.049-0.354-0.146c-0.195-0.196-0.195-0.512,0-0.708l25.839-25.807    c0.195-0.194,0.512-0.195,0.707,0c0.195,0.196,0.195,0.512,0,0.708L12.24,43.615C12.143,43.712,12.015,43.761,11.887,43.761z"/>
	</g>
	<g>
		<path d="M13.813,50.94c-0.128,0-0.256-0.049-0.354-0.146c-0.195-0.195-0.195-0.512,0-0.707l36.06-36.06    c0.195-0.195,0.512-0.195,0.707,0s0.195,0.512,0,0.707l-36.06,36.06C14.069,50.891,13.941,50.94,13.813,50.94z"/>
	</g>
	<g>
		<path d="M22.412,51.445c-0.128,0-0.256-0.049-0.354-0.146c-0.195-0.195-0.195-0.512,0-0.707L49.651,23    c0.195-0.195,0.512-0.195,0.707,0s0.195,0.512,0,0.707L22.766,51.299C22.668,51.396,22.54,51.445,22.412,51.445z"/>
	</g>
	<g>
		<path d="M31.518,51.445c-0.128,0-0.256-0.049-0.354-0.146c-0.195-0.195-0.195-0.512,0-0.707l18.482-18.483    c0.195-0.195,0.512-0.195,0.707,0s0.195,0.512,0,0.707L31.871,51.299C31.773,51.396,31.646,51.445,31.518,51.445z"/>
	</g>
	<g>
		<path d="M40.622,51.445c-0.128,0-0.256-0.049-0.354-0.146c-0.195-0.195-0.195-0.512,0-0.707l9.29-9.29    c0.195-0.195,0.512-0.195,0.707,0s0.195,0.512,0,0.707l-9.29,9.29C40.878,51.396,40.75,51.445,40.622,51.445z"/>
	</g>
	<g>
		<path d="M50.005,55.955c-0.128,0-0.256-0.049-0.354-0.146c-0.195-0.195-0.195-0.512,0-0.707l4.51-4.51    c0.195-0.195,0.512-0.195,0.707,0s0.195,0.512,0,0.707l-4.51,4.51C50.261,55.906,50.133,55.955,50.005,55.955z"/>
	</g>
	<g>
		<path d="M50.005,60.508c-0.128,0-0.256-0.049-0.354-0.146c-0.195-0.195-0.195-0.512,0-0.707l9.063-9.063    c0.195-0.195,0.512-0.195,0.707,0s0.195,0.512,0,0.707l-9.063,9.063C50.261,60.459,50.133,60.508,50.005,60.508z"/>
	</g>
	<g>
		<path d="M50.005,65.06c-0.128,0-0.256-0.049-0.354-0.146c-0.195-0.195-0.195-0.512,0-0.707l13.57-13.57    c0.195-0.195,0.512-0.195,0.707,0s0.195,0.512,0,0.707l-13.57,13.57C50.261,65.011,50.133,65.06,50.005,65.06z"/>
	</g>
	<g>
		<path d="M50.005,69.612c-0.128,0-0.256-0.049-0.354-0.146c-0.195-0.195-0.195-0.512,0-0.707l18.167-18.167    c0.195-0.195,0.512-0.195,0.707,0s0.195,0.512,0,0.707L50.358,69.466C50.261,69.563,50.133,69.612,50.005,69.612z"/>
	</g>
	<g>
		<path d="M50,74.169c-0.128,0-0.256-0.049-0.354-0.146c-0.195-0.195-0.195-0.512,0-0.707l22.725-22.724    c0.195-0.195,0.512-0.195,0.707,0s0.195,0.512,0,0.707L50.354,74.023C50.256,74.121,50.128,74.169,50,74.169z"/>
	</g>
	<g>
		<path d="M50.171,78.551c-0.128,0-0.256-0.049-0.354-0.146c-0.195-0.195-0.195-0.512,0-0.707l27.105-27.105    c0.195-0.195,0.512-0.195,0.707,0s0.195,0.512,0,0.707L50.524,78.404C50.427,78.502,50.299,78.551,50.171,78.551z"/>
	</g>
	<g>
		<path d="M50.171,83.104c-0.128,0-0.256-0.049-0.354-0.146c-0.195-0.195-0.195-0.512,0-0.707l31.626-31.626    c0.195-0.195,0.512-0.195,0.707,0s0.195,0.512,0,0.707L50.524,82.957C50.427,83.055,50.299,83.104,50.171,83.104z"/>
	</g>
	<g>
		<path d="M50.171,87.656c-0.128,0-0.256-0.049-0.354-0.146c-0.195-0.195-0.195-0.512,0-0.707l35.265-35.264    c0.195-0.195,0.512-0.195,0.707,0s0.195,0.512,0,0.707L50.524,87.509C50.427,87.607,50.299,87.656,50.171,87.656z"/>
	</g>
	<g>
		<path d="M52.334,90.045c-0.128,0-0.256-0.049-0.354-0.146c-0.195-0.195-0.195-0.512,0-0.707l30.986-30.987    c0.195-0.195,0.512-0.195,0.707,0s0.195,0.512,0,0.707L52.688,89.898C52.59,89.996,52.462,90.045,52.334,90.045z"/>
	</g>
	<g>
		<path d="M61.473,85.459c-0.128,0-0.256-0.049-0.354-0.146c-0.195-0.195-0.195-0.512,0-0.707l17.039-17.039    c0.195-0.195,0.512-0.195,0.707,0s0.195,0.512,0,0.707L61.826,85.313C61.729,85.41,61.601,85.459,61.473,85.459z"/>
	</g>
</g>
<text x="0.0" y="117.5" font-size="5.0" font-weight="bold" font-family="Helvetica Neue, Helvetica, Arial-Unicode, Arial, Sans-serif" fill="#000000">Created by Grant Fisher</text><text x="0.0" y="122.5" font-size="5.0" font-weight="bold" font-family="Helvetica Neue, Helvetica, Arial-Unicode, Arial, Sans-serif" fill="#000000">from the Noun Project</text></svg>