<svg xmlns="http://www.w3.org/2000/svg" xmlns:xlink="http://www.w3.org/1999/xlink" version="1.1" id="Layer_1" x="0px" y="0px" viewBox="5.0 -10.0 100.0 135.0" enable-background="new 0 0 100 100" xml:space="preserve" height="100px" width="100px">
<g>
	<g>
		<path fill="#000000" d="M50,92.5C26.6,92.5,7.5,73.4,7.5,50C7.5,26.6,26.6,7.5,50,7.5c23.4,0,42.5,19.1,42.5,42.5    C92.5,73.4,73.4,92.5,50,92.5z M50,9.7C27.8,9.7,9.7,27.8,9.7,50S27.8,90.3,50,90.3S90.3,72.2,90.3,50S72.2,9.7,50,9.7z"/>
	</g>
	<g>
		<path fill="#000000" d="M50,71.8C38,71.8,28.2,62,28.2,50c0-12,9.8-21.8,21.8-21.8c12,0,21.8,9.8,21.8,21.8    C71.8,62,62,71.8,50,71.8z M50,30.4c-10.8,0-19.6,8.8-19.6,19.6c0,10.8,8.8,19.6,19.6,19.6c10.8,0,19.6-8.8,19.6-19.6    C69.6,39.2,60.8,30.4,50,30.4z"/>
	</g>
	<g>
		<g>
			<path fill="#000000" d="M50,59.4c-5.2,0-9.4-4.2-9.4-9.4c0-5.2,4.2-9.4,9.4-9.4c5.2,0,9.4,4.2,9.4,9.4     C59.4,55.2,55.2,59.4,50,59.4z M50,42.8c-4,0-7.2,3.2-7.2,7.2c0,4,3.2,7.2,7.2,7.2c4,0,7.2-3.2,7.2-7.2C57.2,46,54,42.8,50,42.8z     "/>
		</g>
		<g>
			<path fill="#000000" d="M50,55.2c-0.6,0-1.1-0.5-1.1-1.1S49.4,53,50,53c1.7,0,3-1.4,3-3c0-0.6,0.5-1.1,1.1-1.1s1.1,0.5,1.1,1.1     C55.2,52.9,52.9,55.2,50,55.2z"/>
		</g>
	</g>
	<g>
		<path fill="#000000" d="M50,17.6c-1.5,0-2.8-1.3-2.8-2.8S48.5,12,50,12c1.5,0,2.8,1.3,2.8,2.8S51.5,17.6,50,17.6z M50,13.5    c-0.7,0-1.3,0.6-1.3,1.3c0,0.7,0.6,1.3,1.3,1.3c0.7,0,1.3-0.6,1.3-1.3C51.3,14.1,50.7,13.5,50,13.5z"/>
	</g>
	<g>
		<path fill="#000000" d="M50,88c-1.5,0-2.8-1.3-2.8-2.8c0-1.5,1.3-2.8,2.8-2.8c1.5,0,2.8,1.3,2.8,2.8C52.8,86.7,51.5,88,50,88z     M50,83.9c-0.7,0-1.3,0.6-1.3,1.3s0.6,1.3,1.3,1.3c0.7,0,1.3-0.6,1.3-1.3S50.7,83.9,50,83.9z"/>
	</g>
	<g>
		<path fill="#000000" d="M85.2,52.8c-1.5,0-2.8-1.3-2.8-2.8c0-1.5,1.3-2.8,2.8-2.8c1.5,0,2.8,1.3,2.8,2.8    C88,51.5,86.7,52.8,85.2,52.8z M85.2,48.7c-0.7,0-1.3,0.6-1.3,1.3c0,0.7,0.6,1.3,1.3,1.3s1.3-0.6,1.3-1.3    C86.5,49.3,85.9,48.7,85.2,48.7z"/>
	</g>
	<g>
		<path fill="#000000" d="M14.8,52.8c-1.5,0-2.8-1.3-2.8-2.8c0-1.5,1.3-2.8,2.8-2.8s2.8,1.3,2.8,2.8C17.6,51.5,16.4,52.8,14.8,52.8z     M14.8,48.7c-0.7,0-1.3,0.6-1.3,1.3c0,0.7,0.6,1.3,1.3,1.3c0.7,0,1.3-0.6,1.3-1.3C16.1,49.3,15.5,48.7,14.8,48.7z"/>
	</g>
	<g>
		<path fill="#000000" d="M74.9,27.9c-0.7,0-1.5-0.3-2-0.8c-0.5-0.5-0.8-1.2-0.8-2c0-0.7,0.3-1.5,0.8-2c1.1-1.1,2.9-1.1,4,0    c0.5,0.5,0.8,1.2,0.8,2c0,0.7-0.3,1.5-0.8,2C76.3,27.6,75.6,27.9,74.9,27.9z M74.9,23.8c-0.4,0-0.7,0.1-0.9,0.4s-0.4,0.6-0.4,0.9    c0,0.4,0.1,0.7,0.4,0.9c0.5,0.5,1.4,0.5,1.9,0c0.3-0.3,0.4-0.6,0.4-0.9c0-0.4-0.1-0.7-0.4-0.9C75.6,23.9,75.2,23.8,74.9,23.8z"/>
	</g>
	<g>
		<path fill="#000000" d="M25.1,77.7c-0.7,0-1.5-0.3-2-0.8c-1.1-1.1-1.1-2.9,0-4c1.1-1.1,2.9-1.1,4,0c1.1,1.1,1.1,2.9,0,4    C26.6,77.4,25.9,77.7,25.1,77.7z M25.1,73.5c-0.4,0-0.7,0.1-0.9,0.4c-0.3,0.3-0.4,0.6-0.4,0.9c0,0.4,0.1,0.7,0.4,0.9    c0.5,0.5,1.4,0.5,1.9,0c0.5-0.5,0.5-1.4,0-1.9C25.8,73.7,25.5,73.5,25.1,73.5z"/>
	</g>
	<g>
		<path fill="#000000" d="M74.9,77.7c-0.7,0-1.5-0.3-2-0.8c-1.1-1.1-1.1-2.9,0-4c1.1-1.1,2.9-1.1,4,0c1.1,1.1,1.1,2.9,0,4    C76.3,77.4,75.6,77.7,74.9,77.7z M74.9,73.5c-0.4,0-0.7,0.1-0.9,0.4c-0.3,0.3-0.4,0.6-0.4,0.9c0,0.4,0.1,0.7,0.4,0.9    c0.5,0.5,1.4,0.5,1.9,0c0.3-0.3,0.4-0.6,0.4-0.9c0-0.4-0.1-0.7-0.4-0.9C75.6,73.7,75.2,73.5,74.9,73.5z"/>
	</g>
	<g>
		<path fill="#000000" d="M25.1,27.9c-0.7,0-1.5-0.3-2-0.8c-0.5-0.5-0.8-1.2-0.8-2c0-0.7,0.3-1.5,0.8-2s1.2-0.8,2-0.8c0,0,0,0,0,0    c0.7,0,1.5,0.3,2,0.8c0.5,0.5,0.8,1.2,0.8,2c0,0.7-0.3,1.5-0.8,2C26.6,27.6,25.9,27.9,25.1,27.9z M25.1,23.8    c-0.4,0-0.7,0.1-0.9,0.4c-0.3,0.3-0.4,0.6-0.4,0.9c0,0.4,0.1,0.7,0.4,0.9c0.5,0.5,1.4,0.5,1.9,0c0.3-0.3,0.4-0.6,0.4-0.9    c0-0.4-0.1-0.7-0.4-0.9C25.8,23.9,25.5,23.8,25.1,23.8z"/>
	</g>
</g>
<text x="0.0" y="117.5" font-size="5.0" font-weight="bold" font-family="Helvetica Neue, Helvetica, Arial-Unicode, Arial, Sans-serif" fill="#000000">Created by Alessandro Bertoni</text><text x="0.0" y="122.5" font-size="5.0" font-weight="bold" font-family="Helvetica Neue, Helvetica, Arial-Unicode, Arial, Sans-serif" fill="#000000">from the Noun Project</text></svg>