<svg xmlns="http://www.w3.org/2000/svg" xmlns:xlink="http://www.w3.org/1999/xlink" version="1.1" id="&#1057;&#1083;&#1086;&#1081;_1" x="0px" y="0px" viewBox="5.0 -10.0 100.0 135.0" enable-background="new 0 0 100 100" xml:space="preserve" height="100px" width="100px">
<g>
	<path fill="none" stroke="#000000" stroke-width="2" stroke-miterlimit="10" d="M68.8,37.8c2.9,3,3.2,11.4,3.1,16.9   c0,1.9,2.2,2.8,3.5,1.6l21.8-20.8c1.4-1.3,0.4-3.6-1.4-3.6c-4.9,0-11.7-0.5-14.4-3.3c-3.3-3.4-8.4-9.5-10.9-12.5   c-0.8-0.9-2.2-1-3.1-0.2L57,26.1c-1,1-0.8,2.6,0.4,3.3C60.5,31.3,65.8,34.7,68.8,37.8z"/>
	<g>
		<path fill="none" stroke="#000000" stroke-width="2" stroke-miterlimit="10" d="M31.2,37.8c-2.9,3-3.2,11.4-3.1,16.9    c0,1.9-2.2,2.8-3.5,1.6L2.7,35.5c-1.4-1.3-0.4-3.6,1.4-3.6c4.9,0,11.7-0.5,14.4-3.3c3.3-3.4,8.4-9.5,10.9-12.5    c0.8-0.9,2.2-1,3.1-0.2L43,26.1c1,1,0.8,2.6-0.4,3.3C39.5,31.3,34.2,34.7,31.2,37.8z"/>
		<path fill="none" stroke="#000000" stroke-width="2" stroke-miterlimit="10" d="M56.9,56.1c-8.7-10.4-13.9-20-20.2-22.8    c-2,1.4-4,3-5.5,4.5C30,39,29.3,41,28.8,43.3c4.7,4.1,12.1,9.2,17.6,15.7c11.4,13.5,12.7,32.5,23.8,23.1    C81.3,72.9,68.3,69.6,56.9,56.1z"/>
	</g>
	<path fill="none" stroke="#000000" stroke-width="2" stroke-miterlimit="10" d="M56.2,55.2c0.2,0.1,0.4,0.2,0.6,0.3   c4.9-4.9,10.6-8.9,14.4-12.3C70.7,41,70,39,68.8,37.8c-1.5-1.5-3.5-3.1-5.5-4.5c-4.3,1.9-8.1,7-12.8,13.2c0.4,1.8,1.7,3.5,2.8,5.1   C54.2,52.8,55.2,54,56.2,55.2z"/>
	<path fill="none" stroke="#000000" stroke-width="2" stroke-miterlimit="10" d="M46.4,59.1c-1-1.1-2-2.2-3-3.3   c-0.1,0.1-0.2,0.2-0.3,0.3C31.7,69.6,18.7,72.9,29.8,82.2c9.8,8.2,12-5.6,20.2-18.2C48.9,62.3,47.7,60.6,46.4,59.1z"/>
</g>
<text x="0.0" y="117.5" font-size="5.0" font-weight="bold" font-family="Helvetica Neue, Helvetica, Arial-Unicode, Arial, Sans-serif" fill="#000000">Created by Roman Shlyakov</text><text x="0.0" y="122.5" font-size="5.0" font-weight="bold" font-family="Helvetica Neue, Helvetica, Arial-Unicode, Arial, Sans-serif" fill="#000000">from the Noun Project</text></svg>