<svg xmlns="http://www.w3.org/2000/svg" xmlns:xlink="http://www.w3.org/1999/xlink" version="1.1" id="Capa_1" x="0px" y="0px" viewBox="4.5 -9.0 90.0 121.5" enable-background="new 0 0 90 90" xml:space="preserve" height="100px" width="100px">
<path d="M61,6.4c-0.1-0.1-0.2-0.1-0.3-0.1h-8.2L51,5C50.9,5,50.8,5,50.7,5H40.2C40.1,5,40,5,39.9,5l-1.6,1.3h-7.8  c-0.1,0-0.2,0-0.3,0.1l-4.8,3.4c-0.1,0.1-0.2,0.2-0.2,0.4v17.6c0,0.2,0.1,0.3,0.2,0.4l4.9,3.1c0.1,0,0.2,0.1,0.3,0.1h10.7v49.9  c0,0.3,0.2,0.5,0.5,0.5h2c0.1,0.9,0.4,2.4,1.4,3c0.3,0.2,0.6,0.3,1,0.3c0.4,0,0.9-0.1,1.5-0.4c0.5-0.3,1-0.8,1.6-1.6l0,0  c2.1-0.7,5.9-3,8.6-5.1c2.7-2.2,2.7-4.6,1.9-6c-0.4-0.7-1-1.1-1.8-1.2c-1.2-0.1-2.4,0.4-3.4,1.5c-0.7,0.7-4.1,4.6-5.9,8  c-0.1,0.1-0.1,0.2-0.2,0.4V31.4h12.2c0.1,0,0.2,0,0.3-0.1l4.2-3.5c0.1-0.1,0.2-0.2,0.2-0.4V10.3c0-0.2-0.1-0.3-0.2-0.4L61,6.4z   M57.8,74.8c-0.7,1.4-3.1,3.3-5,4.4c-0.7,0.4-1.3,0.7-1.8,0.9c0.4-0.6,0.8-1.2,1.1-1.7c1.3-2.1,2.7-4.1,4.6-5.4  c0.4-0.3,1-0.1,1.2,0.1C58.3,73.4,58.2,74,57.8,74.8z M50.7,80.9L50.7,80.9c0.4-0.2,1.3-0.6,2.5-1.2c1.5-0.9,4.3-2.9,5.2-4.6  c0.8-1.5,0.2-2.2-0.1-2.5c-0.5-0.5-1.4-0.3-2,0c-1,0.5-3.5,3.4-4.7,5.5c-0.4,0.7-1.9,3-2,3.3c-0.2,0.4-1.1,1.8-2.4,2.6  c-0.7,0.4-1.2,0.4-1.6,0.2c-0.7-0.4-0.9-1.7-1-2.3h0.6c0.1,0.4,0.2,0.8,0.5,1.1c0.2,0.3,0.6,0.6,1.1,0.6c0,0,0.1,0,0.1,0  c0.8-0.1,1.6-1,2.6-2.8c1.8-3.3,5.3-7.3,5.7-7.8c0.7-0.8,1.7-1.3,2.5-1.2c0.5,0.1,0.9,0.3,1.1,0.7c0.6,1.1,0.5,3-1.7,4.8  c-2.3,1.9-5.1,3.5-6.9,4.4C50.5,81.3,50.6,81.1,50.7,80.9z M46.5,82.3c-0.1-0.2-0.2-0.3-0.3-0.4h1.4c-0.4,0.6-0.7,0.7-0.8,0.7  C46.8,82.5,46.6,82.4,46.5,82.3z M47.5,72.1v8.7h-5.2v-4.6L47.5,72.1z M42.3,47v-2.8l5.2-4.1v2.8L42.3,47z M47.5,43.6v2.9l-5.2,4.1  v-2.9L47.5,43.6z M47.5,47.3v2.6l-5.2,4.1v-2.6L47.5,47.3z M47.5,50.7v2.9l-5.2,4.1v-2.9L47.5,50.7z M47.5,54.5v2.6l-5.2,4.1v-2.6  L47.5,54.5z M47.5,57.9v2.8l-5.2,4.1V62L47.5,57.9z M47.5,61.5V64l-5.2,4.1v-2.6L47.5,61.5z M47.5,64.8v2.8l-5.2,4.1V69L47.5,64.8z   M47.5,68.4v2.9l-5.2,4.1v-2.9L47.5,68.4z M42.3,43.3v-2.9l5.2-4.1v2.9L42.3,43.3z M42.3,39.7v-2.8l5.2-4.1v2.8L42.3,39.7z M42.3,36  v-4.6h5.2v0.5L42.3,36z M50.6,6l0.3,0.4H40L40.3,6H50.6z M64.5,10.5v16.8l-0.1,0.1l-3.1,1V9l3,1.2L64.5,10.5z M30,29.1l0.1,0.9  l-2.2-1.4L30,29.1z M30.1,9v19.5l-3.7-0.9l-0.2-0.1v-17l0.3-0.2L30.1,9z M28.5,8.9l1.6-1.1L30,8.3L28.5,8.9z M60.6,29.1l-0.2,1.4  H30.8l-0.2-1.4H60.6z M31.1,28.1V9.3h29.2v18.8H31.1z M30.6,8.3l0.1-1h29.7l0.1,1H30.6z M61.1,7.8l1.4,1.1l-1.3-0.5L61.1,7.8z   M63,28.4l-1.9,1.5l0.1-1L63,28.4z"/>
<text x="0.0" y="105.75" font-size="4.5" font-weight="bold" font-family="Helvetica Neue, Helvetica, Arial-Unicode, Arial, Sans-serif" fill="#000000">Created by L.C.</text><text x="0.0" y="110.25" font-size="4.5" font-weight="bold" font-family="Helvetica Neue, Helvetica, Arial-Unicode, Arial, Sans-serif" fill="#000000">from the Noun Project</text></svg>