<svg xmlns="http://www.w3.org/2000/svg" xmlns:xlink="http://www.w3.org/1999/xlink" version="1.1" id="Layer_1" x="0px" y="0px" width="100px" height="100px" viewBox="5.0 -10.0 100.0 135.0" enable-background="new 0 0 100 100" xml:space="preserve">
<polygon fill="#000000" points="36.328,63.672 41.64,70.627 90.811,23.947 99.895,0.105 76.053,9.189 29.375,58.359 "/>
<path fill="#000000" d="M42.741,88.611l4.795-4.793L33.956,66.045L16.183,52.463l-4.794,4.797l11.463,11.463L9.373,82.201  c-2.4-0.109-4.836,0.727-6.67,2.561c-3.461,3.459-3.465,9.072-0.001,12.535c3.464,3.465,9.079,3.465,12.541,0.002  c1.834-1.834,2.665-4.27,2.556-6.67l13.48-13.48L42.741,88.611z"/>
<text x="0.0" y="117.5" font-size="5.0" font-weight="bold" font-family="Helvetica Neue, Helvetica, Arial-Unicode, Arial, Sans-serif" fill="#000000">Created by Christopher T. Howlett</text><text x="0.0" y="122.5" font-size="5.0" font-weight="bold" font-family="Helvetica Neue, Helvetica, Arial-Unicode, Arial, Sans-serif" fill="#000000">from the Noun Project</text></svg>