<svg xmlns="http://www.w3.org/2000/svg" xmlns:xlink="http://www.w3.org/1999/xlink" version="1.1" id="Layer_1" x="0px" y="0px" viewBox="5.0 -10.0 100.0 135.0" enable-background="new 0 0 100 100" xml:space="preserve" height="100px" width="100px">
<path fill="#000000" d="M85.1,21.1l1.5-1.5c0.4-0.4,0.4-1.1,0-1.6l-0.5-0.5c-2.5-2.5-6-6-9.8-6c-1.7,0-3.3,0.7-4.7,2.1L13.9,71.4  C9.6,75.7,15.7,83.7,16,84c0.4,0.4,0.8,0.9,1.1,1.2c2,2,4.1,3.1,6.3,3.2c1.9,0.1,3.9-0.7,5.3-2.1l57.8-57.8  C87.6,27.5,88.8,25.1,85.1,21.1z M82.8,21.9c0.9,0.9,3.6,3.8,2.2,5.1c-0.5,0.5-1.8,1.6-3.7,1.5c-0.9,0-1.8-0.3-2.7-0.9l1.3-1.3  c0.4-0.4,0.4-1.1,0.1-1.5c-1.6-1.9-2.9-4.5-2.3-5.2c0.5-0.5,1.5-0.4,2.8,0.4C81.5,20.6,82.4,21.4,82.8,21.9z M76.3,13.7  c2.6,0,5.4,2.6,7.6,4.8c0.1,0.1,0.2,0.2,0.3,0.3l-0.7,0.7c-0.5-0.4-1.1-0.9-1.9-1.4c-3.1-1.9-4.8-0.9-5.6-0.1c-2,2,0.2,5.6,1.5,7.4  l-0.8,0.8c-0.4-0.4-0.9-0.9-1.3-1.4c-0.1-0.1-5.2-6.8-2.3-9.7C74.2,14.2,75.2,13.7,76.3,13.7z M27.2,84.8c-0.5,0.5-1.8,1.6-3.7,1.5  c-1.9-0.1-3.9-1.3-5.8-3.6c-0.1-0.1-5.2-6.8-2.3-9.7L39,49.4c0.4,3.8,3.4,7.8,3.6,8c0.4,0.4,0.8,0.9,1.1,1.2c2,2,4.1,3.1,6.3,3.2  c0,0,0,0,0.1,0L27.2,84.8z M53.9,58.1c-0.5,0.5-1.8,1.6-3.7,1.5c-1.9-0.1-3.9-1.3-5.8-3.6c-0.1-0.1-5.2-6.8-2.3-9.7l5.9-5.9  c0.4,3.8,3.4,7.8,3.6,8c0.4,0.4,0.8,0.9,1.1,1.2c2,2,4.1,3.1,6.3,3.2c0,0,0,0,0.1,0L53.9,58.1z M62.8,49.2c-0.5,0.5-1.8,1.6-3.7,1.5  c-1.9-0.1-3.9-1.3-5.8-3.6c-0.1-0.1-5.2-6.8-2.3-9.7l19.2-19.2c0.4,3.8,3.4,7.8,3.6,8c0.4,0.4,0.8,0.9,1.1,1.2  c0.4,0.4,0.7,0.7,1.1,1c0.1,0.1,0.2,0.2,0.3,0.2c1.6,1.2,3.2,1.9,4.9,2c0,0,0,0,0.1,0L62.8,49.2z"/>
<text x="0.0" y="117.5" font-size="5.0" font-weight="bold" font-family="Helvetica Neue, Helvetica, Arial-Unicode, Arial, Sans-serif" fill="#000000">Created by Alessandro Bertoni</text><text x="0.0" y="122.5" font-size="5.0" font-weight="bold" font-family="Helvetica Neue, Helvetica, Arial-Unicode, Arial, Sans-serif" fill="#000000">from the Noun Project</text></svg>