<svg xmlns="http://www.w3.org/2000/svg" xmlns:xlink="http://www.w3.org/1999/xlink" version="1.1" id="Layer_1" x="0px" y="0px" width="50px" height="50px" viewBox="2.5 -5.0 50.0 67.5" enable-background="new 0 0 50 50" xml:space="preserve">
<g>
	<path d="M38.709,34.678V5.644H1.757v29.034h7.039v7.918c0,0.364,0.224,0.691,0.564,0.821c0.103,0.04,0.209,0.059,0.315,0.059   c0.244,0,0.484-0.103,0.653-0.291l7.656-8.507H38.709z M16.939,33.209l-6.385,7.095v-6.506c0-0.485-0.394-0.88-0.88-0.88H3.517   V7.404h33.433v25.514H17.593v0.007C17.353,32.925,17.112,33.016,16.939,33.209z"/>
	<path d="M10.555,16.202h20.236c0.242,0,0.439-0.197,0.439-0.44c0-0.243-0.197-0.439-0.439-0.439H10.555   c-0.243,0-0.439,0.197-0.439,0.439C10.115,16.005,10.312,16.202,10.555,16.202z"/>
	<path d="M10.555,19.721h20.236c0.242,0,0.439-0.197,0.439-0.439c0-0.243-0.197-0.44-0.439-0.44H10.555   c-0.243,0-0.439,0.197-0.439,0.44C10.115,19.523,10.312,19.721,10.555,19.721z"/>
	<path d="M31.23,22.801c0-0.242-0.197-0.44-0.439-0.44H10.555c-0.243,0-0.439,0.198-0.439,0.44s0.196,0.439,0.439,0.439h20.236   C31.033,23.24,31.23,23.043,31.23,22.801z"/>
	<path d="M46.627,23.24h-5.279c-0.487,0-0.88,0.395-0.88,0.88S40.86,25,41.348,25h4.399v13.197h-2.64c-0.487,0-0.88,0.395-0.88,0.88   v2.17l-2.698-2.818c-0.22-0.224-0.525-0.29-0.811-0.229c-0.003,0-0.007-0.001-0.01-0.001h-9.678v-1.76   c0-0.485-0.395-0.88-0.881-0.88s-0.879,0.395-0.879,0.88v2.639c0,0.486,0.393,0.88,0.879,0.88h10.41l1.197,1.227l2.706,2.894   c0.17,0.183,0.404,0.279,0.642,0.279c0.108,0,0.219-0.02,0.323-0.061c0.336-0.135,0.557-0.458,0.557-0.819v-3.52h2.64   c0.487,0,0.88-0.394,0.88-0.88V24.121C47.507,23.635,47.113,23.24,46.627,23.24z"/>
</g>
<text x="0.0" y="58.75" font-size="2.5" font-weight="bold" font-family="Helvetica Neue, Helvetica, Arial-Unicode, Arial, Sans-serif" fill="#000000">Created by Lubo&#353; Volkov</text><text x="0.0" y="61.25" font-size="2.5" font-weight="bold" font-family="Helvetica Neue, Helvetica, Arial-Unicode, Arial, Sans-serif" fill="#000000">from the Noun Project</text></svg>