<svg xmlns="http://www.w3.org/2000/svg" xmlns:xlink="http://www.w3.org/1999/xlink" version="1.1" id="Livello_1" x="0px" y="0px" width="100px" height="100px" viewBox="5.0 -10.0 100.0 135.0" enable-background="new 0 0 100 100" xml:space="preserve">
<g id="ARC_95_">
	<g id="XMLID_1_">
		<g>
			<path d="M72.73,53.38c0.42-1.46,0.76-4.22,0.71-5.73V21.31c-6.57,3.42-17.11,3.07-23.44-0.77c-6.33,3.84-16.87,4.19-23.44,0.77     v26.34c-0.05,1.51,0.29,4.27,0.71,5.73C29.38,64.2,39.58,75.96,50,79.57C60.42,75.96,70.62,64.2,72.73,53.38z M75,18.75v28.9     c0.05,1.62-0.31,4.56-0.76,6.11C72,65.26,61.12,77.59,50,81.25c-11.12-3.66-22-15.99-24.24-27.49c-0.45-1.55-0.82-4.49-0.76-6.11     v-28.9c6.92,4.47,18.08,4.47,25,0C56.92,23.22,68.08,23.22,75,18.75z"/>
		</g>
		<g>
		</g>
	</g>
</g>
<text x="0.0" y="117.5" font-size="5.0" font-weight="bold" font-family="Helvetica Neue, Helvetica, Arial-Unicode, Arial, Sans-serif" fill="#000000">Created by Valerio Poltrini</text><text x="0.0" y="122.5" font-size="5.0" font-weight="bold" font-family="Helvetica Neue, Helvetica, Arial-Unicode, Arial, Sans-serif" fill="#000000">from the Noun Project</text></svg>